<?xml version="1.0" encoding="UTF-8" standalone="no"?>
<!DOCTYPE svg PUBLIC "-//W3C//DTD SVG 1.1//EN"
 "http://www.w3.org/Graphics/SVG/1.1/DTD/svg11.dtd">
<!-- Generated by graphviz version 2.26.3 (20100126.1600)
 -->
<!-- Title: G Pages: 1 -->
<svg width="444pt" height="152pt"
 viewBox="0.00 0.00 444.00 152.00" xmlns="http://www.w3.org/2000/svg" xmlns:xlink="http://www.w3.org/1999/xlink">
<g id="graph1" class="graph" transform="scale(1 1) rotate(0) translate(4 148)">
<title>G</title>
<polygon fill="white" stroke="white" points="-4,5 -4,-148 441,-148 441,5 -4,5"/>
<g id="graph2" class="cluster"><title>cluster_Global</title>
<polyline fill="none" stroke="gray" points="258,-8 416,-8 "/>
<path fill="none" stroke="gray" d="M416,-8C422,-8 428,-14 428,-20"/>
<polyline fill="none" stroke="gray" points="428,-20 428,-124 "/>
<path fill="none" stroke="gray" d="M428,-124C428,-130 422,-136 416,-136"/>
<polyline fill="none" stroke="gray" points="416,-136 258,-136 "/>
<path fill="none" stroke="gray" d="M258,-136C252,-136 246,-130 246,-124"/>
<polyline fill="none" stroke="gray" points="246,-124 246,-20 "/>
<path fill="none" stroke="gray" d="M246,-20C246,-14 252,-8 258,-8"/>
<text text-anchor="middle" x="337" y="-122.1" font-family="Times Roman,serif" font-size="11.00" fill="gray">\</text>
</g>
<!-- \\block_boaidp_edit_form -->
<g id="node2" class="node"><title>\\block_boaidp_edit_form</title>
<polygon fill="none" stroke="black" points="419,-106 255,-106 255,-70 419,-70 419,-106"/>
<text text-anchor="middle" x="337" y="-85.1" font-family="Courier,monospace" font-size="11.00">block_boaidp_edit_form</text>
</g>
<!-- \\block_edit_form -->
<g id="node5" class="node"><title>\\block_edit_form</title>
<ellipse fill="none" stroke="black" cx="91" cy="-88" rx="91.2168" ry="18.3848"/>
<text text-anchor="middle" x="91" y="-84.4" font-family="Times Roman,serif" font-size="14.00" fill="gray">\block_edit_form</text>
</g>
<!-- \\block_boaidp_edit_form&#45;&gt;\\block_edit_form -->
<g id="edge3" class="edge"><title>\\block_boaidp_edit_form&#45;&gt;\\block_edit_form</title>
<path fill="none" stroke="black" d="M254.401,-88C234.489,-88 212.988,-88 192.329,-88"/>
<polygon fill="none" stroke="black" points="192.265,-84.5001 182.265,-88 192.265,-91.5001 192.265,-84.5001"/>
</g>
<!-- \\block_boaidp -->
<g id="node3" class="node"><title>\\block_boaidp</title>
<polygon fill="none" stroke="black" points="386,-52 288,-52 288,-16 386,-16 386,-52"/>
<text text-anchor="middle" x="337" y="-31.1" font-family="Courier,monospace" font-size="11.00">block_boaidp</text>
</g>
<!-- \\block_base -->
<g id="node7" class="node"><title>\\block_base</title>
<ellipse fill="none" stroke="black" cx="91" cy="-34" rx="67.1751" ry="18.3848"/>
<text text-anchor="middle" x="91" y="-30.4" font-family="Times Roman,serif" font-size="14.00" fill="gray">\block_base</text>
</g>
<!-- \\block_boaidp&#45;&gt;\\block_base -->
<g id="edge5" class="edge"><title>\\block_boaidp&#45;&gt;\\block_base</title>
<path fill="none" stroke="black" d="M287.809,-34C253.701,-34 207.576,-34 168.553,-34"/>
<polygon fill="none" stroke="black" points="168.275,-30.5001 158.275,-34 168.275,-37.5001 168.275,-30.5001"/>
</g>
</g>
</svg>
